# xmcd
#
# Track frame offsets:
#	150
#	18514
#	37371
#	54620
#	71872
#	87191
#	109543
#	136618
#	155033
#	169802
#	189144
#	212352
#
# Disc length: 3198 seconds
#
# Revision: 1
# Processed by: cddbd v1.5.2PL0 Copyright (c) Steve Scherf et al.
# Submitted via: audiograbber 1.83.01
#
DISCID=a00c7c0c
DTITLE=Eddy Mitchell - Héros
DYEAR=2013
DGENRE=
TTITLE0=Le goût des larmes
TTITLE1=Les vrais héros
TTITLE2=Premiers printemps
TTITLE3=Pour tuer le temps
TTITLE4=La cour des grands
TTITLE5=J'veux qu'on m'aime
TTITLE6=T'es pas doué pour l'amour
TTITLE7=Final Cut
TTITLE8=T'es seul, tu stresses, t'es mal
TTITLE9=Léo
TTITLE10=La complainte du phoque en Alaska
TTITLE11=Aux anges
EXTD=
EXTT0=
EXTT1=
EXTT2=
EXTT3=
EXTT4=
EXTT5=
EXTT6=
EXTT7=
EXTT8=
EXTT9=
EXTT10=
EXTT11=
PLAYORDER=
